<svg width="98" height="100" viewBox="0 0 98 100" fill="none" xmlns="http://www.w3.org/2000/svg">
<g clip-path="url(#clip0_450_21265)">
<path fill-rule="evenodd" clip-rule="evenodd" d="M49.0002 100C58.6695 100 68.1216 97.0675 76.1614 91.5733C84.201 86.0792 90.467 78.2705 94.1678 69.1342C97.8679 59.9978 98.8359 49.9445 96.9496 40.2455C95.0633 30.5464 90.4075 21.6373 83.5696 14.6447C76.7326 7.65206 68.0214 2.89002 58.538 0.960757C49.0544 -0.968501 39.2245 0.0216633 30.2913 3.80604C21.358 7.59042 13.7226 13.9991 8.35057 22.2215C2.97861 30.444 0.111328 40.1109 0.111328 50C0.111328 63.2608 5.26211 75.9785 14.4306 85.355C23.599 94.7325 36.0341 100 49.0002 100ZM42.3731 27.7777L73.0644 45.2222C73.9004 45.7067 74.5957 46.4094 75.0795 47.2586C75.5633 48.1077 75.8182 49.0728 75.8182 50.0556C75.8182 51.0383 75.5633 52.0035 75.0795 52.8526C74.5957 53.7017 73.9004 54.4043 73.0644 54.8889L42.3731 72.2222C41.4008 72.7725 40.3071 73.0594 39.1959 73.0558C38.0847 73.0522 36.9929 72.7581 36.0241 72.2014C35.0552 71.6448 34.2416 70.8441 33.6606 69.8754C33.0795 68.9067 32.7502 67.8022 32.7039 66.6667V33.3333C32.7502 32.1978 33.0795 31.0933 33.6606 30.1246C34.2416 29.1559 35.0552 28.3552 36.0241 27.7986C36.9929 27.2419 38.0847 26.9478 39.1959 26.9442C40.3071 26.9406 41.4008 27.2275 42.3731 27.7777Z" fill="white"/>
</g>
<defs>
<clipPath id="clip0_450_21265">
<rect width="97.7778" height="100" fill="white" transform="translate(0.111328)"/>
</clipPath>
</defs>
</svg>
