<svg width="24" height="25" viewBox="0 0 24 25" fill="none" xmlns="http://www.w3.org/2000/svg">
<path d="M12 2.75C6.62391 2.75 2.25 7.12391 2.25 12.5C2.25 17.8761 6.62391 22.25 12 22.25C17.3761 22.25 21.75 17.8761 21.75 12.5C21.75 7.12391 17.3761 2.75 12 2.75ZM15.5302 14.9698C15.6027 15.0388 15.6608 15.1216 15.7008 15.2133C15.7409 15.305 15.7622 15.4039 15.7635 15.504C15.7648 15.6041 15.746 15.7034 15.7083 15.7961C15.6706 15.8889 15.6147 15.9731 15.5439 16.0439C15.4731 16.1147 15.3889 16.1706 15.2961 16.2083C15.2034 16.246 15.1041 16.2648 15.004 16.2635C14.9039 16.2622 14.805 16.2409 14.7133 16.2008C14.6216 16.1608 14.5388 16.1027 14.4698 16.0302L12 13.5608L9.53016 16.0302C9.38836 16.1649 9.19955 16.2389 9.00398 16.2364C8.8084 16.2339 8.62155 16.1551 8.48325 16.0168C8.34495 15.8785 8.26614 15.6916 8.26364 15.496C8.26114 15.3005 8.33513 15.1116 8.46984 14.9698L10.9392 12.5L8.46984 10.0302C8.33513 9.88836 8.26114 9.69955 8.26364 9.50398C8.26614 9.3084 8.34495 9.12155 8.48325 8.98325C8.62155 8.84495 8.8084 8.76614 9.00398 8.76364C9.19955 8.76114 9.38836 8.83513 9.53016 8.96984L12 11.4392L14.4698 8.96984C14.6116 8.83513 14.8005 8.76114 14.996 8.76364C15.1916 8.76614 15.3785 8.84495 15.5168 8.98325C15.6551 9.12155 15.7339 9.3084 15.7364 9.50398C15.7389 9.69955 15.6649 9.88836 15.5302 10.0302L13.0608 12.5L15.5302 14.9698Z" fill="#FF5C2B"/>
</svg>
